<svg width="30" height="30" viewBox="0 0 30 30" fill="none" xmlns="http://www.w3.org/2000/svg">
<path d="M30 12.3215V13.393C30 14.2806 29.4404 15.0001 28.75 15.0001H28.3333L26.9733 27.2403C26.7973 28.8238 25.7426 30 24.4984 30H5.50156C4.25745 30 3.20266 28.8238 3.02667 27.2403L1.66667 15.0001H1.25C0.559635 15.0001 0 14.2806 0 13.393V12.3215C0 11.4339 0.559635 10.7144 1.25 10.7144H4.75734L10.3188 0.882707C10.8602 -0.074341 11.9025 -0.286014 12.647 0.410075C13.3914 1.10616 13.556 2.44631 13.0146 3.40343L8.87901 10.7144H21.121L16.9854 3.40336C16.444 2.44631 16.6086 1.1061 17.3531 0.410009C18.0974 -0.286081 19.1398 -0.0744749 19.6812 0.88264L25.2427 10.7144H28.75C29.4404 10.7144 30 11.4339 30 12.3215ZM16.25 24.1072V16.6072C16.25 15.7196 15.6904 15.0001 15 15.0001C14.3096 15.0001 13.75 15.7196 13.75 16.6072V24.1072C13.75 24.9948 14.3096 25.7143 15 25.7143C15.6904 25.7143 16.25 24.9948 16.25 24.1072ZM22.0833 24.1072V16.6072C22.0833 15.7196 21.5237 15.0001 20.8333 15.0001C20.143 15.0001 19.5833 15.7196 19.5833 16.6072V24.1072C19.5833 24.9948 20.143 25.7143 20.8333 25.7143C21.5237 25.7143 22.0833 24.9948 22.0833 24.1072ZM10.4167 24.1072V16.6072C10.4167 15.7196 9.85703 15.0001 9.16667 15.0001C8.4763 15.0001 7.91667 15.7196 7.91667 16.6072V24.1072C7.91667 24.9948 8.4763 25.7143 9.16667 25.7143C9.85703 25.7143 10.4167 24.9948 10.4167 24.1072Z" fill="#F1FAEE"/>
</svg>
