<svg width="20" height="19" viewBox="0 0 20 19" fill="none" xmlns="http://www.w3.org/2000/svg">
<path d="M10 0C4.47714 0 0 4.13272 0 9.23071C0 14.3287 4.47714 18.4614 10 18.4614C15.5229 18.4614 20 14.3287 20 9.23071C20 4.13272 15.5229 0 10 0ZM14.7231 12.9064C14.659 12.9759 13.1193 14.6085 10.2937 14.6085C6.87867 14.6085 4.4677 12.2539 4.4677 9.1904C4.4677 6.16426 6.96786 3.85293 10.2646 3.85293C12.9644 3.85293 14.376 5.24182 14.4348 5.30096C14.5072 5.3738 14.5514 5.46674 14.5604 5.56523C14.5694 5.66373 14.5428 5.7622 14.4847 5.84524L13.5823 7.13512C13.419 7.36838 13.0672 7.40873 12.8471 7.22054C12.8377 7.21257 11.7773 6.33171 10.3519 6.33171C8.49238 6.33171 7.37141 7.58139 7.37141 9.16353C7.37141 10.6375 8.4002 12.1297 10.3665 12.1297C11.9268 12.1297 12.9987 11.075 13.0094 11.0643C13.2163 10.8571 13.5763 10.8769 13.7556 11.1035L14.7454 12.353C14.8097 12.4341 14.8424 12.5329 14.8384 12.6333C14.8343 12.7337 14.7937 12.8299 14.7231 12.9064Z" fill="white"/>
</svg>
