<svg width="53" height="41" viewBox="0 0 53 41" fill="none" xmlns="http://www.w3.org/2000/svg">
<path d="M0 36.6071C0 39.0324 1.9783 41 4.41667 41H48.5833C51.0217 41 53 39.0324 53 36.6071V20.5H0V36.6071ZM17.6667 30.3839C17.6667 29.7799 18.1635 29.2857 18.7708 29.2857H31.2847C31.892 29.2857 32.3889 29.7799 32.3889 30.3839V34.0446C32.3889 34.6487 31.892 35.1429 31.2847 35.1429H18.7708C18.1635 35.1429 17.6667 34.6487 17.6667 34.0446V30.3839ZM5.88889 30.3839C5.88889 29.7799 6.38576 29.2857 6.99306 29.2857H13.6181C14.2253 29.2857 14.7222 29.7799 14.7222 30.3839V34.0446C14.7222 34.6487 14.2253 35.1429 13.6181 35.1429H6.99306C6.38576 35.1429 5.88889 34.6487 5.88889 34.0446V30.3839ZM53 4.39286V8.78571H0V4.39286C0 1.96763 1.9783 0 4.41667 0H48.5833C51.0217 0 53 1.96763 53 4.39286Z" fill="#F1FAEE"/>
</svg>
