<svg width="30" height="41" viewBox="0 0 30 41" fill="none" xmlns="http://www.w3.org/2000/svg">
<path d="M13.4584 39.4785C2.10703 23.0223 0 21.3334 0 15.2855C0 7.00122 6.7157 0.285522 15 0.285522C23.2843 0.285522 30 7.00122 30 15.2855C30 21.3334 27.893 23.0223 16.5416 39.4785C15.7966 40.5546 14.2033 40.5545 13.4584 39.4785ZM15 21.5355C18.4518 21.5355 21.25 18.7373 21.25 15.2855C21.25 11.8337 18.4518 9.03552 15 9.03552C11.5482 9.03552 8.75 11.8337 8.75 15.2855C8.75 18.7373 11.5482 21.5355 15 21.5355Z" fill="#1D3557"/>
</svg>
