<svg width="30" height="29" viewBox="0 0 30 29" fill="none" xmlns="http://www.w3.org/2000/svg">
<path d="M15.0033 6.99601C10.7468 6.99601 7.31344 10.2834 7.31344 14.3589C7.31344 18.4344 10.7468 21.7218 15.0033 21.7218C19.2599 21.7218 22.6933 18.4344 22.6933 14.3589C22.6933 10.2834 19.2599 6.99601 15.0033 6.99601ZM15.0033 19.1457C12.2526 19.1457 10.0039 16.999 10.0039 14.3589C10.0039 11.7188 12.246 9.57206 15.0033 9.57206C17.7607 9.57206 20.0028 11.7188 20.0028 14.3589C20.0028 16.999 17.754 19.1457 15.0033 19.1457ZM24.8015 6.69483C24.8015 7.64964 23.9983 8.4122 23.0078 8.4122C22.0106 8.4122 21.2142 7.64323 21.2142 6.69483C21.2142 5.74644 22.0173 4.97747 23.0078 4.97747C23.9983 4.97747 24.8015 5.74644 24.8015 6.69483ZM29.8946 8.43783C29.7808 6.13733 29.232 4.09956 27.4718 2.42065C25.7184 0.741734 23.5901 0.216272 21.1874 0.100927C18.7111 -0.0336424 11.2889 -0.0336424 8.8126 0.100927C6.41662 0.209864 4.28834 0.735326 2.52817 2.41424C0.767987 4.09316 0.225878 6.13092 0.10541 8.43142C-0.0351366 10.8024 -0.0351366 17.909 0.10541 20.2799C0.219186 22.5804 0.767987 24.6182 2.52817 26.2971C4.28834 27.976 6.40993 28.5015 8.8126 28.6168C11.2889 28.7514 18.7111 28.7514 21.1874 28.6168C23.5901 28.5079 25.7184 27.9824 27.4718 26.2971C29.2253 24.6182 29.7741 22.5804 29.8946 20.2799C30.0351 17.909 30.0351 10.8088 29.8946 8.43783ZM26.6955 22.8239C26.1735 24.0799 25.1629 25.0475 23.8444 25.5538C21.8701 26.3035 17.1852 26.1305 15.0033 26.1305C12.8215 26.1305 8.12995 26.2971 6.1623 25.5538C4.85053 25.054 3.83993 24.0863 3.31121 22.8239C2.52817 20.9336 2.70887 16.4479 2.70887 14.3589C2.70887 12.2699 2.53486 7.7778 3.31121 5.89382C3.83324 4.63784 4.84384 3.67022 6.1623 3.16399C8.13664 2.41424 12.8215 2.58726 15.0033 2.58726C17.1852 2.58726 21.8767 2.42065 23.8444 3.16399C25.1562 3.66381 26.1668 4.63143 26.6955 5.89382C27.4785 7.7842 27.2978 12.2699 27.2978 14.3589C27.2978 16.4479 27.4785 20.94 26.6955 22.8239Z" fill="white"/>
</svg>
