<svg width="70" height="60" viewBox="0 0 70 60" fill="none" xmlns="http://www.w3.org/2000/svg">
<path d="M46.5626 30.0041C44.7143 30.0041 42.9754 28.7988 42.0348 26.8703L35.0024 12.5939L27.981 26.8703C27.0295 28.8122 25.2905 30.0175 23.4422 30.0175C22.9501 30.0175 22.4579 29.9372 21.9876 29.7631L7.00419 24.5132V48.3519C7.00419 50.3206 8.09787 52.0348 9.6509 52.5035L33.2963 59.7489C34.4118 60.0837 35.5821 60.0837 36.6867 59.7489L60.3539 52.5035C61.907 52.0214 63.0007 50.3072 63.0007 48.3519V24.5132L48.0172 29.7497C47.5469 29.9238 47.0548 30.0041 46.5626 30.0041ZM69.8143 14.9778L64.1818 1.21028C63.8428 0.37994 63.11 -0.10219 62.3554 0.0183427L35.0024 4.29055L45.0315 24.6605C45.4471 25.5043 46.2783 25.906 47.0548 25.6382L68.6987 18.0714C69.7815 17.683 70.3064 16.2099 69.8143 14.9778ZM5.82301 1.21028L0.190555 14.9778C-0.312538 16.2099 0.223365 17.683 1.29517 18.058L22.9391 25.6248C23.7156 25.8927 24.5468 25.4909 24.9624 24.6471L35.0024 4.29055L7.63852 0.0183427C6.88388 -0.0887973 6.16205 0.37994 5.82301 1.21028Z" fill="#1D3557"/>
</svg>
