<svg width="70" height="70" viewBox="0 0 70 70" fill="none" xmlns="http://www.w3.org/2000/svg">
<path d="M21.7191 0.0209064C19.5096 -0.186914 17.4533 1.17212 16.8887 3.31869L14.8638 11.0121C40.5158 11.7628 57.8688 28.8697 58.9543 54.3537L66.7394 52.1962C68.8887 51.6 70.2245 49.5054 69.9688 47.2878C67.114 22.5708 46.5904 2.36846 21.7191 0.0209064ZM13.7249 15.334L0.0730475 67.2194C-0.0261969 67.5963 -0.0242825 67.9927 0.0785976 68.3687C0.181478 68.7446 0.381685 69.0868 0.659022 69.3607C0.93636 69.6346 1.28102 69.8304 1.65823 69.9286C2.03544 70.0267 2.43187 70.0237 2.80752 69.9197L54.6257 55.55C54.0419 31.6383 37.7978 15.6074 13.7249 15.3395V15.334ZM17.4984 56.8776C16.6331 56.8776 15.7872 56.621 15.0677 56.1402C14.3483 55.6595 13.7875 54.9762 13.4563 54.1767C13.1252 53.3773 13.0385 52.4976 13.2074 51.6489C13.3762 50.8002 13.7929 50.0206 14.4047 49.4087C15.0166 48.7968 15.7962 48.3801 16.6449 48.2113C17.4936 48.0425 18.3733 48.1291 19.1727 48.4603C19.9722 48.7914 20.6555 49.3522 21.1362 50.0717C21.617 50.7912 21.8736 51.6371 21.8736 52.5024C21.8736 53.6628 21.4126 54.7756 20.5921 55.5961C19.7716 56.4166 18.6588 56.8776 17.4984 56.8776ZM24.0612 36.0955C23.1958 36.0955 22.35 35.8389 21.6305 35.3582C20.911 34.8774 20.3502 34.1941 20.0191 33.3947C19.6879 32.5952 19.6013 31.7155 19.7701 30.8668C19.9389 30.0181 20.3556 29.2385 20.9675 28.6267C21.5793 28.0148 22.3589 27.5981 23.2076 27.4293C24.0563 27.2604 24.936 27.3471 25.7355 27.6782C26.5349 28.0094 27.2182 28.5702 27.699 29.2897C28.1797 30.0091 28.4363 30.855 28.4363 31.7204C28.4363 32.8807 27.9754 33.9936 27.1549 34.8141C26.3344 35.6346 25.2215 36.0955 24.0612 36.0955ZM38.2804 50.3148C37.4151 50.3148 36.5692 50.0582 35.8497 49.5775C35.1302 49.0967 34.5694 48.4134 34.2383 47.614C33.9071 46.8145 33.8205 45.9348 33.9893 45.0861C34.1581 44.2374 34.5748 43.4578 35.1867 42.8459C35.7986 42.2341 36.5782 41.8174 37.4269 41.6486C38.2756 41.4797 39.1552 41.5664 39.9547 41.8975C40.7542 42.2287 41.4375 42.7895 41.9182 43.5089C42.399 44.2284 42.6556 45.0743 42.6556 45.9397C42.6556 47.1 42.1946 48.2129 41.3741 49.0334C40.5536 49.8539 39.4408 50.3148 38.2804 50.3148Z" fill="#1D3557"/>
</svg>
