<?xml version="1.0" encoding="utf-8"?>
<!-- Generator: Adobe Illustrator 22.1.0, SVG Export Plug-In . SVG Version: 6.00 Build 0)  -->
<svg version="1.1" id="Слой_1" xmlns="http://www.w3.org/2000/svg" xmlns:xlink="http://www.w3.org/1999/xlink" x="0px" y="0px"
	 width="128px" height="128px" viewBox="0 0 128 128" style="enable-background:new 0 0 128 128;" xml:space="preserve">
<style type="text/css">
	.st0{fill:none;stroke:#62883D;stroke-width:7;}
	.st1{fill:#62883D;}
	.st2{fill:#FFFFFF;}
</style>
<circle id="Oval-5" class="st0" cx="64" cy="64" r="60.5"/>
<path id="Combined-Shape" class="st1" d="M64,113.4c-27.3,0-49.4-22.1-49.4-49.4S36.7,14.6,64,14.6s49.4,22.1,49.4,49.4
	S91.3,113.4,64,113.4z M78.6,97.5c4.4,0,7.9-3.5,7.9-7.9s-3.5-7.9-7.9-7.9s-7.9,3.5-7.9,7.9S74.3,97.5,78.6,97.5z M44.8,46.6
	c4.4,0,7.9-3.5,7.9-7.9s-3.5-7.9-7.9-7.9s-7.9,3.5-7.9,7.9S40.4,46.6,44.8,46.6z M32.7,52.7c-1.3-0.4-2.6,0.4-3,1.7l-1,3.5
	c-0.4,1.3,0.4,2.6,1.7,3l0,0c1.3,0.4,2.6-0.4,3-1.7l0,0l1-3.5C34.8,54.4,34,53,32.7,52.7z M51.7,50.9c-0.2,1.3,0.7,2.6,2,2.8
	l3.6,0.6c1.3,0.2,2.6-0.7,2.8-2s-0.7-2.6-2-2.8l-3.6-0.6C53.1,48.6,51.9,49.5,51.7,50.9z M69.9,32.7c-1.3,0.4-2,1.8-1.6,3.1l1.1,3.5
	c0.4,1.3,1.8,2,3.1,1.6c1.3-0.4,2-1.8,1.6-3.1l0,0L73,34.3C72.6,33,71.2,32.3,69.9,32.7z M57.5,24L57.5,24c-0.9-1-2.5-1-3.4-0.1
	l-2.7,2.5c-1,0.9-1,2.5-0.1,3.4c0.9,1,2.5,1,3.4,0.1l2.7-2.5C58.3,26.5,58.4,24.9,57.5,24L57.5,24z M98.6,70.9L98.6,70.9
	c-1.3,0-2.4,1.1-2.4,2.4V77c0,1.3,1.1,2.4,2.4,2.4c1.3,0,2.4-1.1,2.4-2.4v-3.7C101.1,72,100,70.9,98.6,70.9L98.6,70.9z M55.2,90.8
	c-1.3,0.3-2.1,1.6-1.8,2.9l0.8,3.6c0.3,1.3,1.6,2.1,2.9,1.8s2.1-1.6,1.8-2.9l-0.8-3.6C57.8,91.3,56.5,90.5,55.2,90.8z M45.4,89.7
	c-0.7-1.1-2.2-1.5-3.4-0.8l0,0L39,90.9c-1.1,0.7-1.5,2.2-0.8,3.4c0.7,1.1,2.2,1.5,3.4,0.8l3.1-1.9C45.8,92.4,46.1,90.9,45.4,89.7z
	 M86.7,57.4c-1.3-0.3-2.6,0.5-3,1.8l-0.9,3.5c-0.3,1.3,0.5,2.6,1.8,3s2.6-0.5,3-1.8l0.9-3.5C88.8,59.1,88,57.7,86.7,57.4z M99,49.8
	c-1.1,0.8-1.3,2.3-0.5,3.4l2.2,2.9c0.8,1.1,2.3,1.3,3.4,0.5c1.1-0.8,1.3-2.3,0.5-3.4l-2.2-2.9C101.7,49.2,100.1,48.9,99,49.8z
	 M56.4,73c-1.2,0.6-1.7,2-1.2,3.2l1.5,3.3c0.6,1.2,2,1.7,3.2,1.2c1.2-0.6,1.7-2,1.2-3.2l-1.5-3.3C59.1,72.9,57.7,72.4,56.4,73z
	 M43.8,62.4c-1.2-0.6-2.7-0.2-3.3,1l-1.7,3.2c-0.6,1.2-0.2,2.7,1,3.3c1.2,0.6,2.7,0.2,3.3-1l1.7-3.2C45.5,64.5,45,63,43.8,62.4z
	 M24,70.6c-0.9,1-0.8,2.5,0.2,3.4l2.7,2.4c1,0.9,2.5,0.8,3.4-0.2c0.9-1,0.8-2.5-0.2-3.4l-2.7-2.4C26.4,69.5,24.9,69.6,24,70.6z
	 M86,44.8c4.4,0,7.9-3.5,7.9-7.9S90.4,29,86,29c-4.4,0-7.9,3.5-7.9,7.9S81.7,44.8,86,44.8z"/>
<rect id="Rectangle-31" x="63" y="14" class="st2" width="1" height="99"/>
<rect id="Rectangle-31_1_" x="63" y="14" transform="matrix(0.5 -0.866 0.866 0.5 -23.2426 86.7426)" class="st2" width="1" height="99"/>
<rect id="Rectangle-31_2_" x="14" y="63" transform="matrix(0.866 -0.5 0.5 0.866 -23.2426 40.2574)" class="st2" width="99" height="1"/>
</svg>
