<?xml version="1.0" encoding="UTF-8"?>
<svg width="30px" height="30px" viewBox="0 0 30 30" version="1.1" xmlns="http://www.w3.org/2000/svg" xmlns:xlink="http://www.w3.org/1999/xlink">
    <!-- Generator: sketchtool 46 (44423) - http://www.bohemiancoding.com/sketch -->
    <title>AB9627B5-EEED-411A-AD34-10F3546648C5</title>
    <desc>Created with sketchtool.</desc>
    <defs></defs>
    <g id="Page-1" stroke="none" stroke-width="1" fill="none" fill-rule="evenodd">
        <g id="Artboard" transform="translate(-1049.000000, -1654.000000)" fill-rule="nonzero" fill="#D80027">
            <g id="pizza-(4)" transform="translate(1049.000000, 1654.000000)">
                <path d="M29.8862109,19.2075 C28.5022266,14.7425391 26.0163281,10.6280859 22.6972852,7.30910156 C19.378125,3.99 15.2637305,1.50410156 10.7988867,0.120117188 C9.44033203,-0.3009375 7.9828125,0.483398438 7.54998047,1.86873047 C7.20210937,2.98177734 7.62673828,4.12453125 8.46316406,4.75599609 L0.0492773438,28.824668 C-0.0620507812,29.1431836 0.01875,29.4973242 0.257285156,29.7359766 C0.496113281,29.9749219 0.850253906,30.0555469 1.16847656,29.9445703 L25.2500391,21.5427539 C25.8823828,22.3807031 27.0254883,22.8038672 28.1376562,22.4563477 C29.5229297,22.0233984 30.3073242,20.5659961 29.8862109,19.2075 Z M8.09191406,11.1446484 C8.64662109,11.6349023 8.97744141,12.3451172 8.97744141,13.1187891 C8.97744141,14.5255078 7.87013672,15.6782813 6.48140625,15.7516992 L8.09191406,11.1446484 Z M7.27335938,25.9529297 C7.23832031,25.7803711 7.21957031,25.6037695 7.21957031,25.423418 C7.21957031,23.9695313 8.40240234,22.7866992 9.85628906,22.7866992 C10.8655664,22.7866992 11.7678516,23.3650781 12.2084766,24.2311523 L7.27335938,25.9529297 Z M13.877168,23.6488477 C13.1862891,22.0879102 11.6189648,21.0287695 9.85634766,21.0287695 C7.43320312,21.0287695 5.461875,23.0001563 5.461875,25.4232422 C5.461875,25.8038672 5.50951172,26.1755859 5.60349609,26.5354102 L2.30994141,27.6844922 L5.87419922,17.4886523 C6.02876953,17.505 6.18445312,17.5132617 6.34078125,17.5132617 C8.76392578,17.5132617 10.7352539,15.541875 10.7352539,13.1187891 C10.7352539,11.5867969 9.95712891,10.2036914 8.69888672,9.40833984 L10.087207,5.43697266 C16.8555469,7.82478516 22.1811914,13.1503125 24.5691797,19.9185938 L13.877168,23.6488477 Z M27.6133008,20.7785156 C27.1591992,20.9203711 26.6661328,20.6821875 26.527793,20.2381641 C25.3083398,16.3231641 23.1226758,12.7123828 20.2082812,9.79798828 C17.2929492,6.88265625 13.6827539,4.69740234 9.76810547,3.47841797 C9.32519531,3.34048828 9.08554687,2.84824219 9.22775391,2.39296875 C9.36972656,1.93857422 9.85078125,1.66652344 10.278457,1.7990625 C18.8484375,4.45552734 25.5507422,11.1578906 28.2072656,19.7279297 C28.3397461,20.1554297 28.0677539,20.636543 27.6133008,20.7785156 Z" id="Shape"></path>
                <path d="M16.8875391,15.7554492 C15.4335937,15.7554492 14.2508203,16.9382812 14.2508203,18.392168 C14.2508203,19.8460547 15.4336523,21.0288867 16.8875391,21.0288867 C18.3414258,21.0288867 19.5242578,19.8460547 19.5242578,18.392168 C19.5242578,16.9382812 18.3413672,15.7554492 16.8875391,15.7554492 Z M16.8874805,19.2710742 C16.4028516,19.2710742 16.0085742,18.8767969 16.0085742,18.392168 C16.0085742,17.9075391 16.4029102,17.5132617 16.8874805,17.5132617 C17.3721094,17.5132617 17.7663867,17.9075391 17.7663867,18.392168 C17.7663867,18.8767969 17.3721094,19.2710742 16.8874805,19.2710742 Z" id="Shape"></path>
                <path d="M15.7511719,12.4973438 L13.9933594,10.7395313 C13.6501758,10.3963477 13.0936523,10.3963477 12.7504102,10.7395313 C12.407168,11.0827734 12.407168,11.6392383 12.7504102,11.9824805 L14.5082227,13.740293 C14.8514648,14.0835352 15.4079297,14.0835352 15.7511719,13.740293 C16.0944141,13.3970508 16.0944141,12.8405859 15.7511719,12.4973438 Z" id="Shape"></path>
                <circle id="Oval" cx="11.6143359" cy="18.3924023" r="1"></circle>
            </g>
        </g>
    </g>
</svg>