<?xml version="1.0" encoding="UTF-8"?>
<svg width="98px" height="98px" viewBox="0 0 98 98" version="1.1" xmlns="http://www.w3.org/2000/svg" xmlns:xlink="http://www.w3.org/1999/xlink">
    <!-- Generator: sketchtool 46 (44423) - http://www.bohemiancoding.com/sketch -->
    <title>4CDD520D-255D-4776-BE02-0DDDEAB0B7B7</title>
    <desc>Created with sketchtool.</desc>
    <defs></defs>
    <g id="Page-1" stroke="none" stroke-width="1" fill="none" fill-rule="evenodd">
        <g id="Artboard" transform="translate(-674.000000, -320.000000)">
            <g id="Group-2" transform="translate(674.000000, 320.000000)">
                <circle id="Oval-5" stroke="#62883D" stroke-width="7" cx="49" cy="49" r="45.5"></circle>
                <path d="M49,87 C28.0131795,87 11,69.9868205 11,49 C11,28.0131795 28.0131795,11 49,11 C69.9868205,11 87,28.0131795 87,49 C87,69.9868205 69.9868205,87 49,87 Z M60.2592593,74.8024691 C63.6275144,74.8024691 66.3580247,72.0719588 66.3580247,68.7037037 C66.3580247,65.3354486 63.6275144,62.6049383 60.2592593,62.6049383 C56.8910041,62.6049383 54.1604938,65.3354486 54.1604938,68.7037037 C54.1604938,72.0719588 56.8910041,74.8024691 60.2592593,74.8024691 Z M32.0431204,34.545178 C35.4113756,34.545178 38.1418858,31.8146677 38.1418858,28.4464126 C38.1418858,25.0781575 35.4113756,22.3476472 32.0431204,22.3476472 C28.6748653,22.3476472 25.944355,25.0781575 25.944355,28.4464126 C25.944355,31.8146677 28.6748653,34.545178 32.0431204,34.545178 Z M24.9351957,36.9933592 L24.9351957,36.9933592 C23.9389573,36.7076925 22.8997679,37.2837245 22.6141012,38.2799629 L21.8382331,40.9857366 C21.5525663,41.9819749 22.1285984,43.0211643 23.1248368,43.3068311 L23.1248368,43.3068311 L23.1248368,43.3068311 C24.1210751,43.5924978 25.1602645,43.0164657 25.4459313,42.0202274 L26.2217994,39.3144537 C26.5074661,38.3182154 25.931434,37.279026 24.9351957,36.9933592 L24.9351957,36.9933592 Z M36.2105865,39.994239 C36.04846,41.0178656 36.7468438,41.9791084 37.7704704,42.1412349 L40.5506301,42.5815689 C41.5742567,42.7436955 42.5354995,42.0453117 42.697626,41.0216851 L42.697626,41.0216851 C42.8597525,39.9980586 42.1613688,39.0368158 41.1377422,38.8746892 L38.3575824,38.4343552 C37.3339559,38.2722287 36.3727131,38.9706124 36.2105865,39.994239 Z M56.8375921,35.8549488 C55.8519302,36.1752097 55.3125162,37.2338693 55.6327772,38.2195312 L56.5026028,40.8965791 C56.8228637,41.882241 57.8815233,42.421655 58.8671852,42.101394 C59.852847,41.7811331 60.392261,40.7224735 60.0720001,39.7368117 L59.2021745,37.0597637 C58.8819135,36.0741018 57.8232539,35.5346878 56.8375921,35.8549488 Z M43.982223,18.1746759 L43.982223,18.1746759 C43.2754093,17.416711 42.0879717,17.3752448 41.3300068,18.0820585 L41.3300068,18.0820585 L39.2713816,20.0017576 C38.5134167,20.7085712 38.4719505,21.8960089 39.1787641,22.6539738 C39.8855778,23.4119387 41.0730155,23.4534049 41.8309804,22.7465912 L43.8896056,20.8268921 C44.6475705,20.1200784 44.6890367,18.9326408 43.982223,18.1746759 L43.982223,18.1746759 Z M76.7538021,55.4183217 C75.7174159,55.4183217 74.8772589,56.2584787 74.8772589,57.2948649 L74.8772589,60.1096797 C74.8772589,61.1460659 75.7174159,61.9862229 76.7538021,61.9862229 C77.7901883,61.9862229 78.6303453,61.1460659 78.6303453,60.1096797 L78.6303453,57.2948649 C78.6303453,56.2584787 77.7901883,55.4183217 76.7538021,55.4183217 Z M42.2412226,69.5949699 L42.2412226,69.5949699 C41.2313989,69.828106 40.6017693,70.8357241 40.8349055,71.8455478 L41.468101,74.5882191 C41.7012372,75.5980428 42.7088552,76.2276724 43.7186789,75.9945362 C44.7285026,75.7614001 45.3581323,74.753782 45.1249961,73.7439583 L44.4918005,71.001287 C44.2586644,69.9914633 43.2510463,69.3618337 42.2412226,69.5949699 L42.2412226,69.5949699 Z M34.6979679,68.8061064 C34.1487669,67.927201 32.991058,67.6599228 32.1121526,68.2091239 L29.7250543,69.7007485 C28.8461489,70.2499495 28.5788708,71.4076584 29.1280718,72.2865637 C29.6772728,73.1654691 30.8349817,73.4327473 31.7138871,72.8835462 L34.1009854,71.3919217 C34.9798908,70.8427206 35.2471689,69.6850117 34.6979679,68.8061064 Z M66.4633978,52.683535 L66.4633978,52.683535 C65.4577967,52.4328104 64.4393436,53.0447588 64.1886191,54.0503599 L63.5076538,56.7815627 C63.2569292,57.7871638 63.8688776,58.8056169 64.8744787,59.0563414 C65.8800798,59.307066 66.898533,58.6951176 67.1492575,57.6895165 L67.8302228,54.9583137 C68.0809473,53.9527126 67.4689989,52.9342595 66.4633978,52.683535 L66.4633978,52.683535 Z M75.9747878,38.0337871 C75.147093,38.6574999 74.9817329,39.8340982 75.6054457,40.661793 L75.6054457,40.661793 L77.2994435,42.9098041 C77.9231563,43.7374989 79.0997547,43.902859 79.9274495,43.2791462 C80.7551443,42.6554334 80.9205044,41.4788351 80.2967916,40.6511403 L78.6027938,38.4031292 C77.979081,37.5754344 76.8024827,37.4100743 75.9747878,38.0337871 Z M39.889959,55.8918269 C38.9506741,56.3298226 38.544299,57.4463291 38.9822947,58.385614 L40.1718869,60.9367026 C40.6098826,61.8759875 41.7263891,62.2823626 42.665674,61.8443669 C43.6049589,61.4063712 44.011334,60.2898646 43.5733383,59.3505797 L42.3837462,56.7994912 C41.9457504,55.8602063 40.8292439,55.4538311 39.889959,55.8918269 Z M33.4859038,54.3479724 C32.5708291,53.8614186 31.4345847,54.2088033 30.9480308,55.123878 L30.9480308,55.123878 L29.6265553,57.609212 C29.1400015,58.5242867 29.4873863,59.6605311 30.402461,60.147085 C31.3175357,60.6336388 32.4537801,60.286254 32.940334,59.3711793 L34.2618095,56.8858454 C34.7483633,55.9707707 34.4009785,54.8345262 33.4859038,54.3479724 Z M18.2116375,54.0864382 C17.5181597,54.8566232 17.5803433,56.0431563 18.3505283,56.736634 L20.4423434,58.6201128 C21.2125285,59.3135905 22.3990616,59.2514069 23.0925393,58.4812219 C23.786017,57.7110369 23.7238334,56.5245038 22.9536484,55.831026 L20.8618333,53.9475473 C20.0916483,53.2540696 18.9051152,53.3162531 18.2116375,54.0864382 Z M65.9704777,34.252818 C69.3387329,34.252818 72.0692432,31.5223077 72.0692432,28.1540526 C72.0692432,24.7857975 69.3387329,22.0552872 65.9704777,22.0552872 C62.6022226,22.0552872 59.8717123,24.7857975 59.8717123,28.1540526 C59.8717123,31.5223077 62.6022226,34.252818 65.9704777,34.252818 Z" id="Combined-Shape" fill="#62883D"></path>
                <rect id="Rectangle-31" fill="#FFFFFF" x="49" y="11" width="1" height="76"></rect>
                <rect id="Rectangle-31" fill="#FFFFFF" transform="translate(49.500000, 49.000000) rotate(-270.000000) translate(-49.500000, -49.000000) " x="49" y="11" width="1" height="76"></rect>
            </g>
        </g>
    </g>
</svg>