<?xml version="1.0" encoding="UTF-8"?>
<svg width="35px" height="35px" viewBox="0 0 35 35" version="1.1" xmlns="http://www.w3.org/2000/svg" xmlns:xlink="http://www.w3.org/1999/xlink">
    <!-- Generator: sketchtool 46 (44423) - http://www.bohemiancoding.com/sketch -->
    <title>DF6DA404-E870-4FFE-916D-D5F7CC71220C</title>
    <desc>Created with sketchtool.</desc>
    <defs></defs>
    <g id="Page-1" stroke="none" stroke-width="1" fill="none" fill-rule="evenodd">
        <g id="Artboard" transform="translate(-849.000000, -914.000000)" fill-rule="nonzero" fill="#D80027">
            <g id="Group-5" transform="translate(849.000000, 914.000000)">
                <circle id="Oval" cx="12.25" cy="8.16666667" r="1"></circle>
                <circle id="Oval" cx="12.25" cy="10.5" r="1"></circle>
                <circle id="Oval" cx="14" cy="9.33333333" r="1"></circle>
                <circle id="Oval" cx="8.16666667" cy="18.0833333" r="1"></circle>
                <circle id="Oval" cx="8.16666667" cy="20.4166667" r="1"></circle>
                <circle id="Oval" cx="9.91666667" cy="19.25" r="1"></circle>
                <circle id="Oval" cx="22.75" cy="11.0833333" r="1"></circle>
                <circle id="Oval" cx="22.75" cy="13.4166667" r="1"></circle>
                <circle id="Oval" cx="24.5" cy="12.25" r="1"></circle>
                <circle id="Oval" cx="14.5833333" cy="25.0833333" r="1"></circle>
                <circle id="Oval" cx="15.75" cy="27.4166667" r="1"></circle>
                <circle id="Oval" cx="16.9166667" cy="25.6666667" r="1"></circle>
                <circle id="Oval" cx="25.0833333" cy="21" r="1"></circle>
                <circle id="Oval" cx="23.3333333" cy="22.1666667" r="1"></circle>
                <circle id="Oval" cx="25.0833333" cy="23.3333333" r="1"></circle>
                <circle id="Oval" cx="16.3333333" cy="15.75" r="1"></circle>
                <circle id="Oval" cx="15.1666667" cy="17.5" r="1"></circle>
                <circle id="Oval" cx="17.5" cy="17.5" r="1"></circle>
                <path d="M17.5,2.91666667 C9.45875,2.91666667 2.91666667,9.45875 2.91666667,17.5 C2.91666667,25.54125 9.45875,32.0833333 17.5,32.0833333 C25.54125,32.0833333 32.0833333,25.54125 32.0833333,17.5 C32.0833333,9.45875 25.54125,2.91666667 17.5,2.91666667 Z M23.3333333,8.75 C25.2635833,8.75 26.8333333,10.31975 26.8333333,12.25 C26.8333333,14.18025 25.2635833,15.75 23.3333333,15.75 C21.4030833,15.75 19.8333333,14.18025 19.8333333,12.25 C19.8333333,10.31975 21.4030833,8.75 23.3333333,8.75 Z M22.03425,19.1444167 C22.0925833,19.4611667 21.8831667,19.7650833 21.5658333,19.8234167 C21.53025,19.8304167 21.4946667,19.8333333 21.4596667,19.8333333 C21.18375,19.8333333 20.9381667,19.63675 20.8868333,19.3555833 C20.7456667,18.5890833 20.9113333,17.81325 21.3535,17.17275 C21.7956667,16.5310833 22.46125,16.1005833 23.22775,15.96 C23.54625,15.8981667 23.849,16.1116667 23.90675,16.4284167 C23.9650833,16.7451667 23.7550833,17.0490833 23.4383333,17.1074167 C22.9780833,17.1925833 22.5785,17.4504167 22.3136667,17.8348333 C22.0488333,18.2186667 21.9496667,18.6841667 22.03425,19.1444167 Z M20.3425833,21.2555 C19.96225,21.9356667 19.3398333,22.4274167 18.5908333,22.6391667 C18.3271667,22.7138333 18.0594167,22.7505833 17.7928333,22.7505833 C17.3010833,22.7505833 16.8145833,22.6245833 16.373,22.3778333 C16.0918333,22.2203333 15.9909167,21.8650833 16.1484167,21.5839167 C16.3059167,21.3033333 16.6605833,21.203 16.9423333,21.3593333 C17.35125,21.5885833 17.8243333,21.6434167 18.2729167,21.5168333 C18.7226667,21.3890833 19.096,21.0939167 19.3240833,20.6855833 C19.481,20.405 19.8356667,20.3040833 20.118,20.461 C20.3991667,20.6190833 20.4995,20.9743333 20.3425833,21.2555 Z M17.5,9.33333333 C18.4648333,9.33333333 19.25,8.54816667 19.25,7.58333333 C19.25,7.26075 19.5113333,7 19.8333333,7 C20.1553333,7 20.4166667,7.26075 20.4166667,7.58333333 C20.4166667,9.19158333 19.10825,10.5 17.5,10.5 C17.178,10.5 16.9166667,10.23925 16.9166667,9.91666667 C16.9166667,9.59408333 17.178,9.33333333 17.5,9.33333333 Z M17.5571667,13.6365833 C18.43275,13.96325 19.12925,14.6113333 19.51775,15.4618333 C19.90625,16.31175 19.9406667,17.2625833 19.614,18.13875 C19.1059167,19.5014167 17.7881667,20.4166667 16.3339167,20.4166667 C15.9168333,20.4166667 15.5055833,20.342 15.11125,20.195 C14.2356667,19.8683333 13.5391667,19.22025 13.1506667,18.36975 C12.7621667,17.5198333 12.72775,16.569 13.0544167,15.6928333 C13.5625,14.3301667 14.88025,13.4149167 16.3345,13.4149167 C16.7515833,13.4149167 17.1628333,13.4895833 17.5571667,13.6365833 Z M12.8333333,5.83333333 C14.7635833,5.83333333 16.3333333,7.40308333 16.3333333,9.33333333 C16.3333333,11.2635833 14.7635833,12.8333333 12.8333333,12.8333333 C10.9030833,12.8333333 9.33333333,11.2635833 9.33333333,9.33333333 C9.33333333,7.40308333 10.9030833,5.83333333 12.8333333,5.83333333 Z M7.94733333,12.2803333 C8.25358333,12.1776667 8.58316667,12.3433333 8.68525,12.649 C8.98975,13.56425 9.98433333,14.0600833 10.899,13.7555833 C11.20525,13.6558333 11.5348333,13.8191667 11.6369167,14.1254167 C11.7384167,14.4305 11.5733333,14.76125 11.2676667,14.8633333 C10.9631667,14.9648333 10.6534167,15.0126667 10.3483333,15.0126667 C9.12625,15.0126667 7.98525,14.2391667 7.57808333,13.01825 C7.47658333,12.712 7.64166667,12.3818333 7.94733333,12.2803333 Z M5.25,19.25 C5.25,17.31975 6.81975,15.75 8.75,15.75 C10.68025,15.75 12.25,17.31975 12.25,19.25 C12.25,21.18025 10.68025,22.75 8.75,22.75 C6.81975,22.75 5.25,21.18025 5.25,19.25 Z M11.4444167,24.1354167 C11.2134167,24.1354167 10.99525,23.9983333 10.9036667,23.7708333 C10.7823333,23.4721667 10.927,23.1320833 11.2250833,23.0113333 C12.1193333,22.6490833 12.5521667,21.6265 12.1905,20.73225 C12.0691667,20.4335833 12.2138333,20.0935 12.5119167,19.97275 C12.8105833,19.8514167 13.1506667,19.9955 13.2714167,20.29475 C13.8751667,21.7851667 13.1535833,23.4890833 11.6631667,24.0928333 C11.5914167,24.122 11.5173333,24.1354167 11.4444167,24.1354167 Z M17.1581667,29.4536667 C16.7101667,29.6508333 16.2370833,29.7505833 15.7511667,29.7505833 C14.3628333,29.7505833 13.1045833,28.9298333 12.54575,27.65875 C11.7693333,25.8924167 12.5743333,23.82275 14.34125,23.0463333 C14.78925,22.8491667 15.2623333,22.7494167 15.74825,22.7494167 C17.1365833,22.7494167 18.3948333,23.5701667 18.9536667,24.84125 C19.7306667,26.6075833 18.9250833,28.67725 17.1581667,29.4536667 Z M23.5176667,27.2655833 C23.2125833,27.3676667 22.90225,27.4160833 22.5971667,27.4160833 C21.3756667,27.4160833 20.23525,26.6425833 19.8280833,25.4216667 C19.726,25.116 19.8910833,24.78525 20.19675,24.68375 C20.5035833,24.5805 20.8331667,24.74675 20.9346667,25.0524167 C21.08225,25.4963333 21.3943333,25.85625 21.812,26.0645 C22.2296667,26.2733333 22.7039167,26.306 23.1484167,26.159 C23.4546667,26.05575 23.78425,26.222 23.8863333,26.5276667 C23.9884167,26.8339167 23.8233333,27.1640833 23.5176667,27.2655833 Z M27.9381667,22.8194167 C27.76375,23.7381667 27.24225,24.53325 26.4693333,25.06 C25.886,25.45725 25.2058333,25.66725 24.5023333,25.66725 C23.3415,25.66725 22.2588333,25.095 21.6066667,24.136 C21.0805,23.3636667 20.8868333,22.4320833 21.06125,21.5139167 C21.2356667,20.5951667 21.7571667,19.8000833 22.5300833,19.2733333 C23.1134167,18.8760833 23.7935833,18.6660833 24.4970833,18.6660833 C25.6579167,18.6660833 26.7405833,19.2383333 27.39275,20.1973333 C27.9189167,20.9696667 28.1125833,21.90125 27.9381667,22.8194167 Z M28.6574167,16.0195 C28.8143333,15.7389167 29.169,15.638 29.4513333,15.7949167 C29.7325,15.9524167 29.8334167,16.3076667 29.6759167,16.5888333 C29.2955833,17.269 28.6731667,17.76075 27.9241667,17.9725 C27.6605,18.0471667 27.39275,18.0839167 27.1261667,18.0839167 C26.6344167,18.0839167 26.1479167,17.9579167 25.7063333,17.7111667 C25.4251667,17.5536667 25.32425,17.1984167 25.48175,16.91725 C25.63925,16.6366667 25.9933333,16.5351667 26.2756667,16.6926667 C26.6845833,16.9213333 27.1570833,16.97675 27.60625,16.8501667 C28.056,16.723 28.4293333,16.4278333 28.6574167,16.0195 Z" id="Shape"></path>
                <path d="M34.7342601,16.5189792 C35.2691768,15.1720625 35.0002601,13.6623958 34.0313434,12.5785625 C33.5798434,12.0733958 33.3406768,11.4241458 33.3575934,10.7515625 C33.3943434,9.3060625 32.6196768,7.9795625 31.3363434,7.28889583 C30.7360934,6.96572917 30.2851768,6.4360625 30.0675934,5.79672917 C29.6020934,4.42822917 28.4167601,3.44472917 26.9735934,3.2300625 C26.2957601,3.12914583 25.6873434,2.78264583 25.2603434,2.25414583 C24.3608434,1.13997917 22.8820934,0.6068125 21.4692601,0.889729167 C20.8019268,1.02272917 20.0966768,0.899645833 19.5185934,0.549645833 C18.3035101,-0.183020833 16.7010934,-0.183604167 15.4854268,0.550229167 C15.0601768,0.806895833 14.5719268,0.9428125 14.0725934,0.9428125 L14.0725934,0.9428125 C13.8923434,0.9428125 13.7115101,0.9253125 13.5353434,0.889729167 C12.1213434,0.6068125 10.6437601,1.13997917 9.74426009,2.25414583 C9.31784343,2.78264583 8.70942676,3.12914583 8.03101009,3.2300625 C6.58842676,3.44472917 5.40309343,4.4288125 4.93759343,5.79672917 C4.72001009,6.4360625 4.26909343,6.96572917 3.66884343,7.28889583 C2.38551009,7.9795625 1.61084343,9.3060625 1.64759343,10.7515625 C1.66451009,11.4241458 1.42534343,12.0733958 0.973843428,12.5785625 C0.00551009436,13.6618125 -0.263989906,15.1720625 0.270926761,16.5189792 C0.519426761,17.1454792 0.519426761,17.8349792 0.270926761,18.4614792 C-0.263989906,19.8083958 0.00492676102,21.3180625 0.973843428,22.4018958 C1.42534343,22.9070625 1.66451009,23.5563125 1.64759343,24.2288958 C1.61084343,25.6743958 2.38551009,27.0008958 3.66884343,27.6915625 C4.26909343,28.0147292 4.72001009,28.5443958 4.93759343,29.1837292 C5.40309343,30.5522292 6.58842676,31.5357292 8.03159343,31.7503958 C8.70942676,31.8513125 9.31784343,32.1978125 9.74484343,32.7263125 C10.6443434,33.8398958 12.1213434,34.3695625 13.5359268,34.0907292 C14.2026768,33.9571458 14.9079268,34.0802292 15.4865934,34.4308125 C16.0944268,34.7971458 16.7915101,34.9908125 17.5031768,34.9908125 C18.2148434,34.9908125 18.9119268,34.7971458 19.5197601,34.4302292 C20.0978434,34.0802292 20.8030934,33.9565625 21.4704268,34.0907292 C22.8832601,34.3701458 24.3620101,33.8398958 25.2615101,32.7263125 C25.6879268,32.1978125 26.2963434,31.8513125 26.9747601,31.7503958 C28.4173434,31.5357292 29.6026768,30.5516458 30.0681768,29.1837292 C30.2857601,28.5443958 30.7366768,28.0147292 31.3369268,27.6915625 C32.6202601,27.0008958 33.3949268,25.6743958 33.3581768,24.2288958 C33.3412601,23.5563125 33.5804268,22.9070625 34.0319268,22.4018958 C35.0002601,21.3186458 35.2697601,19.8083958 34.7348434,18.4614792 C34.4857601,17.8349792 34.4857601,17.1454792 34.7342601,16.5189792 Z M33.6504268,18.8919792 C34.0208434,19.8253125 33.8335934,20.8729792 33.1621768,21.6248958 C32.5123434,22.3517292 32.1675934,23.2873958 32.1920934,24.2586458 C32.2171768,25.2613958 31.6781768,26.1830625 30.7839268,26.6637292 C29.9229268,27.1268958 29.2765934,27.8887292 28.9633434,28.8074792 C28.6390101,29.7606458 27.8112601,30.4460625 26.8026768,30.5959792 C25.8343434,30.7400625 24.9645934,31.2364792 24.3538434,31.9936458 C23.7250101,32.7712292 22.6907601,33.1433958 21.6990934,32.9468125 C20.7494268,32.7583958 19.7425934,32.9328125 18.9171768,33.4315625 C18.0660934,33.9454792 16.9408434,33.9448958 16.0903434,33.4321458 C15.4830934,33.0646458 14.7860101,32.8709792 14.0737601,32.8709792 C13.8170934,32.8709792 13.5598434,32.8966458 13.3078434,32.9468125 C12.3155934,33.1433958 11.2813434,32.7712292 10.6530934,31.9936458 C10.0417601,31.2364792 9.17201009,30.7406458 8.20426009,30.5959792 C7.19567676,30.4454792 6.36734343,29.7600625 6.04301009,28.8074792 C5.72976009,27.8887292 5.08342676,27.1268958 4.22242676,26.6637292 C3.32876009,26.1830625 2.78917676,25.2613958 2.81426009,24.2586458 C2.83876009,23.2873958 2.49401009,22.3517292 1.84417676,21.6248958 C1.17217676,20.8729792 0.984926761,19.8253125 1.35592676,18.8919792 C1.71526009,17.9878125 1.71526009,16.9920625 1.35592676,16.0878958 C0.985510094,15.1545625 1.17276009,14.1068958 1.84417676,13.3549792 C2.49401009,12.6281458 2.83876009,11.6924792 2.81426009,10.7212292 C2.78917676,9.71847917 3.32817676,8.7968125 4.22242676,8.31614583 C5.08342676,7.85297917 5.72976009,7.09114583 6.04301009,6.17239583 C6.36734343,5.21922917 7.19509343,4.5338125 8.20367676,4.38389583 C9.17201009,4.2398125 10.0417601,3.74339583 10.6525101,2.98622917 C11.2813434,2.2080625 12.3150101,1.83414583 13.3072601,2.0330625 C13.5586768,2.08322917 13.8165101,2.10889583 14.0731768,2.10889583 L14.0731768,2.10889583 C14.7848434,2.10889583 15.4825101,1.91522917 16.0891768,1.5483125 C16.9402601,1.03439583 18.0655101,1.03497917 18.9160101,1.54772917 C19.7420101,2.0470625 20.7482601,2.2220625 21.6985101,2.0330625 C22.6884268,1.8335625 23.7244268,2.2080625 24.3532601,2.98622917 C24.9645934,3.74339583 25.8343434,4.23922917 26.8020934,4.38389583 C27.8106768,4.53439583 28.6390101,5.2198125 28.9633434,6.17239583 C29.2765934,7.09114583 29.9229268,7.85297917 30.7839268,8.31614583 C31.6775934,8.7968125 32.2171768,9.71847917 32.1920934,10.7212292 C32.1675934,11.6924792 32.5123434,12.6281458 33.1621768,13.3549792 C33.8341768,14.1068958 34.0214268,15.1545625 33.6504268,16.0878958 C33.2910934,16.9920625 33.2910934,17.9883958 33.6504268,18.8919792 Z" id="Shape"></path>
            </g>
        </g>
    </g>
</svg>