<svg width="40" height="41" viewBox="0 0 40 41" fill="none" xmlns="http://www.w3.org/2000/svg">
<path d="M20 0.339478C8.95161 0.339478 0 9.29109 0 20.3395C0 31.3879 8.95161 40.3395 20 40.3395C31.0484 40.3395 40 31.3879 40 20.3395C40 9.29109 31.0484 0.339478 20 0.339478ZM24.6048 28.5733L17.4919 23.404C17.2419 23.2185 17.0968 22.9282 17.0968 22.6217V9.04915C17.0968 8.5169 17.5323 8.08141 18.0645 8.08141H21.9355C22.4677 8.08141 22.9032 8.5169 22.9032 9.04915V20.154L28.0242 23.8798C28.4597 24.1943 28.5484 24.7992 28.2339 25.2346L25.9597 28.3637C25.6452 28.7911 25.0403 28.8879 24.6048 28.5733Z" fill="#1D3557"/>
</svg>
