<svg width="70" height="60" viewBox="0 0 70 60" fill="none" xmlns="http://www.w3.org/2000/svg">
<path d="M66.3781 1.13934C65.6975 -0.32531 63.7529 -0.383896 62.9386 0.998731C59.1708 7.31429 52.4254 11.2513 44.7198 11.2513H34.9967C22.1135 11.2513 11.6611 21.328 11.6611 33.7482C11.6611 34.5684 11.7584 35.3535 11.8434 36.1503C19.5976 30.7955 30.7914 26.2493 46.6644 26.2493C47.734 26.2493 48.6091 27.0929 48.6091 28.124C48.6091 29.1551 47.734 29.9987 46.6644 29.9987C16.1095 29.9987 3.15337 48.0549 0.285044 54.8392C-0.517115 56.7491 0.430892 58.9285 2.41198 59.7135C4.40523 60.5103 6.66586 59.5846 7.49233 57.6864C7.67463 57.2646 10.0325 52.0739 16.231 47.0707C20.1689 52.2145 27.6557 57.124 37.4882 56.1163C56.5699 54.7806 70 38.2828 70 18.0824C70 12.2004 68.6874 6.10742 66.3781 1.13934Z" fill="#1D3557"/>
</svg>
