<svg width="53" height="41" viewBox="0 0 53 41" fill="none" xmlns="http://www.w3.org/2000/svg">
<path d="M44.4335 34.5297C44.4335 35.152 44.0102 35.6004 43.403 35.6004C42.7773 35.6004 42.3724 35.1245 42.3724 34.5297C42.3724 33.9348 42.7773 33.4589 43.403 33.4589C44.0102 33.4589 44.4335 33.9348 44.4335 34.5297ZM15.8356 33.4589C15.1823 33.4589 14.805 33.9348 14.805 34.5297C14.805 35.1245 15.1823 35.6004 15.8356 35.6004C16.4337 35.6004 16.8385 35.152 16.8385 34.5297C16.8293 33.9348 16.4337 33.4589 15.8356 33.4589ZM26.6472 33.4315C26.1503 33.4315 25.8467 33.7518 25.7731 34.2277H27.5306C27.4477 33.706 27.1257 33.4315 26.6472 33.4315ZM36.5663 33.4589C35.9406 33.4589 35.5634 33.9348 35.5634 34.5297C35.5634 35.1245 35.9406 35.6004 36.5663 35.6004C37.192 35.6004 37.5969 35.152 37.5969 34.5297C37.5969 33.9348 37.192 33.4589 36.5663 33.4589ZM46.3106 35.8475C46.3106 35.875 46.3382 35.8933 46.3382 35.9482C46.3382 35.9757 46.3106 35.994 46.3106 36.0489C46.283 36.0763 46.283 36.0946 46.2646 36.1221C46.237 36.1496 46.2186 36.1679 46.1634 36.1679C46.1358 36.1953 46.1174 36.1953 46.0622 36.1953C46.0345 36.1953 46.0161 36.1953 45.9609 36.1679C45.9333 36.1679 45.9149 36.1404 45.8873 36.1221C45.8597 36.0946 45.8413 36.0763 45.8413 36.0489C45.8137 36.0031 45.8137 35.9757 45.8137 35.9482C45.8137 35.9025 45.8137 35.875 45.8413 35.8475C45.8413 35.8018 45.8689 35.7743 45.8873 35.7469C45.9149 35.7194 45.9333 35.7194 45.9609 35.7011C46.0069 35.6737 46.0345 35.6737 46.0622 35.6737C46.1082 35.6737 46.1358 35.6737 46.1634 35.7011C46.2094 35.7286 46.237 35.7286 46.2646 35.7469C46.2922 35.7652 46.283 35.8018 46.3106 35.8475ZM46.1082 35.9757C46.1542 35.9757 46.1542 35.9482 46.1818 35.9482C46.2094 35.9208 46.2094 35.9025 46.2094 35.875C46.2094 35.8475 46.2094 35.8292 46.1818 35.8018C46.1542 35.8018 46.1358 35.7743 46.0806 35.7743H45.9333V36.0946H46.0069V35.9665H46.0345L46.1358 36.0946H46.2094L46.1082 35.9757ZM53 4.39286V36.6071C53 39.0324 51.0217 41 48.5833 41H4.41667C1.9783 41 0 39.0324 0 36.6071V4.39286C0 1.96763 1.9783 0 4.41667 0H48.5833C51.0217 0 53 1.96763 53 4.39286ZM5.88889 17.1688C5.88889 24.1699 11.603 29.844 18.6328 29.844C21.1356 29.844 23.5924 29.0935 25.6719 27.7299C18.9641 22.3029 19.0101 12.0621 25.6719 6.63504C23.5924 5.26228 21.1356 4.52098 18.6328 4.52098C11.603 4.51183 5.88889 10.1951 5.88889 17.1688ZM26.5 27.1259C32.987 22.0924 32.9594 12.2817 26.5 7.22076C20.0406 12.2817 20.013 22.1016 26.5 27.1259ZM13.4064 34.1087C13.4064 33.3125 12.8819 32.7908 12.0538 32.7634C11.6306 32.7634 11.1797 32.8915 10.876 33.3583C10.6552 32.983 10.278 32.7634 9.75347 32.7634C9.40382 32.7634 9.05417 32.8915 8.77812 33.2576V32.8549H8.02361V36.2136H8.77812C8.77812 34.4839 8.54809 33.4498 9.60625 33.4498C10.5448 33.4498 10.3608 34.3833 10.3608 36.2136H11.0877C11.0877 34.5388 10.8576 33.4498 11.9158 33.4498C12.8543 33.4498 12.6703 34.365 12.6703 36.2136H13.4248V34.1087H13.4064ZM17.5378 32.8549H16.8109V33.2576C16.5625 32.9556 16.2128 32.7634 15.7344 32.7634C14.7866 32.7634 14.0597 33.5138 14.0597 34.5297C14.0597 35.5547 14.7866 36.296 15.7344 36.296C16.2128 36.296 16.5625 36.1221 16.8109 35.8018V36.2228H17.5378V32.8549ZM21.2644 35.1978C21.2644 33.825 19.1573 34.4473 19.1573 33.8067C19.1573 33.285 20.2523 33.3674 20.8595 33.706L21.1632 33.1112C20.2983 32.5529 18.3844 32.5621 18.3844 33.8616C18.3844 35.1703 20.4915 34.6212 20.4915 35.2344C20.4915 35.8109 19.2493 35.7652 18.5868 35.3076L18.2648 35.8842C19.2953 36.5797 21.2644 36.4333 21.2644 35.1978ZM24.5217 36.0489L24.3193 35.4266C23.9696 35.6188 23.1967 35.8292 23.1967 35.0513V33.5321H24.4021V32.8549H23.1967V31.8299H22.4422V32.8549H21.7429V33.523H22.4422V35.0513C22.4422 36.6621 24.034 36.3692 24.5217 36.0489ZM25.7455 34.8225H28.2759C28.2759 33.34 27.595 32.7542 26.6748 32.7542C25.6995 32.7542 25.0002 33.4772 25.0002 34.5205C25.0002 36.3967 27.0797 36.7078 28.1102 35.8201L27.7606 35.271C27.0429 35.8567 25.9571 35.8018 25.7455 34.8225ZM31.1835 32.8549C30.7602 32.6719 30.1161 32.6902 29.7849 33.2576V32.8549H29.0304V36.2136H29.7849V34.3192C29.7849 33.2576 30.659 33.3949 30.9627 33.5504L31.1835 32.8549ZM32.1589 34.5297C32.1589 33.4864 33.2262 33.1478 34.0635 33.7609L34.4132 33.1661C33.3458 32.3333 31.4043 32.7908 31.4043 34.5388C31.4043 36.3509 33.4655 36.717 34.4132 35.9116L34.0635 35.3167C33.217 35.9116 32.1589 35.5547 32.1589 34.5297ZM38.2962 32.8549H37.5417V33.2576C36.778 32.2509 34.7905 32.8183 34.7905 34.5297C34.7905 36.2868 36.8516 36.7902 37.5417 35.8018V36.2228H38.2962V32.8549ZM41.397 32.8549C41.1762 32.7451 40.3849 32.5895 39.9984 33.2576V32.8549H39.2715V36.2136H39.9984V34.3192C39.9984 33.3125 40.8266 33.3766 41.1762 33.5504L41.397 32.8549ZM45.1052 31.4913H44.3783V33.2576C43.6238 32.26 41.6271 32.7908 41.6271 34.5297C41.6271 36.3051 43.6974 36.781 44.3783 35.8018V36.2228H45.1052V31.4913ZM45.8045 24.6183V25.0393H45.8781V24.6183H46.053V24.5451H45.6297V24.6183H45.8045ZM46.4118 35.9482C46.4118 35.9025 46.4118 35.8475 46.3842 35.8018C46.3566 35.7743 46.3382 35.7286 46.3106 35.7011C46.283 35.6737 46.237 35.6554 46.2094 35.6279C46.1634 35.6279 46.1082 35.6004 46.0622 35.6004C46.0345 35.6004 45.9885 35.6279 45.9333 35.6279C45.8873 35.6554 45.8597 35.6737 45.8321 35.7011C45.7861 35.7286 45.7585 35.7743 45.7585 35.8018C45.7309 35.8475 45.7309 35.9025 45.7309 35.9482C45.7309 35.9757 45.7309 36.0214 45.7585 36.0763C45.7585 36.1038 45.7861 36.1496 45.8321 36.177C45.8597 36.2045 45.8781 36.2228 45.9333 36.2502C45.9793 36.2777 46.0345 36.2777 46.0622 36.2777C46.1082 36.2777 46.1634 36.2777 46.2094 36.2502C46.237 36.2228 46.283 36.2045 46.3106 36.177C46.3382 36.1496 46.3566 36.1038 46.3842 36.0763C46.4118 36.0214 46.4118 35.9757 46.4118 35.9482ZM46.7063 24.5359H46.5774L46.4302 24.8563L46.283 24.5359H46.1542V25.0301H46.2278V24.6549L46.375 24.9752H46.4762L46.605 24.6549V25.0301H46.7063V24.5359ZM47.1111 17.1688C47.1111 10.1951 41.397 4.51183 34.3672 4.51183C31.8644 4.51183 29.4076 5.26228 27.3281 6.62589C33.9623 12.0529 34.0635 22.3212 27.3281 27.7208C29.4076 29.0935 31.8828 29.8348 34.3672 29.8348C41.397 29.844 47.1111 24.1699 47.1111 17.1688Z" fill="#F1FAEE"/>
</svg>
