<svg width="193" height="50" viewBox="0 0 193 50" fill="none" xmlns="http://www.w3.org/2000/svg">
<path d="M193 25.5847C193 39.8488 183.072 50 168.41 50C154.352 50 143 38.8306 143 25C143 11.1694 154.352 0 168.41 0C175.254 0 181.012 2.46976 185.449 6.54234L178.533 13.0847C169.486 4.49597 152.662 10.9476 152.662 25C152.662 33.7198 159.742 40.7863 168.41 40.7863C178.471 40.7863 182.242 33.6895 182.836 30.0101H168.41V21.4113H192.6C192.836 22.6915 193 23.9214 193 25.5847Z" fill="#1D3557"/>
<path d="M22.475 6.43319C21.0337 8.12714 18.7276 9.45946 16.4216 9.26913C16.1333 6.98515 17.2671 4.54892 18.5931 3.06433C20.0344 1.33232 22.5519 0.0951656 24.6081 0C24.8387 2.36011 23.8971 4.70118 22.475 6.43319ZM24.5697 9.70689C21.2259 9.51656 18.3625 11.5912 16.7867 11.5912C15.1725 11.5912 12.7511 9.80206 10.0991 9.85915C6.65926 9.91625 3.46921 11.8386 1.72044 14.9029C-1.89239 21.0506 0.778802 30.1294 4.27633 35.1351C5.98665 37.6094 8.02368 40.3312 10.7141 40.236C13.27 40.1408 14.2693 38.5992 17.344 38.5992C20.438 38.5992 21.3412 40.236 24.0316 40.1979C26.8181 40.1408 28.5668 37.7236 30.2772 35.2493C32.2181 32.4324 33.0252 29.7107 33.0636 29.5584C33.006 29.5013 27.6828 27.4838 27.6252 21.3932C27.5675 16.2924 31.8337 13.8751 32.0259 13.7229C29.6238 10.1827 25.8764 9.80205 24.5697 9.70689ZM43.8637 2.8169V39.9124H49.6865V27.2364H57.7385C65.0987 27.2364 70.2489 22.2307 70.2489 14.9981C70.2489 7.76551 65.1755 2.8169 57.9307 2.8169H43.8637ZM49.6865 7.67035H56.3933C61.4474 7.67035 64.33 10.335 64.33 15.0171C64.33 19.6993 61.4474 22.402 56.3741 22.402H49.6865V7.67035ZM80.8568 40.1979C84.508 40.1979 87.8902 38.3708 89.4276 35.4587H89.5429V39.9124H94.9237V21.4503C94.9237 16.102 90.5999 12.638 83.9507 12.638C77.782 12.638 73.2083 16.1401 73.0354 20.9364H78.2816C78.7236 18.6525 80.8568 17.1488 83.7778 17.1488C87.3329 17.1488 89.3315 18.7857 89.3315 21.812V23.8675L82.0674 24.3053C75.3222 24.705 71.6709 27.4458 71.6709 32.204C71.6902 37.0004 75.4567 40.1979 80.8568 40.1979ZM82.4326 35.8013C79.3386 35.8013 77.3592 34.3167 77.3592 32.0708C77.3592 29.7297 79.2617 28.3784 82.8938 28.169L89.3507 27.7693V29.863C89.3507 33.327 86.3721 35.8013 82.4326 35.8013ZM102.13 50C107.799 50 110.47 47.8493 112.796 41.359L123 12.9996H117.081L110.24 34.9067H110.124L103.283 12.9996H97.2106L107.05 40.0076L106.512 41.6445C105.628 44.4233 104.186 45.5082 101.611 45.5082C101.15 45.5082 100.266 45.4511 99.901 45.413V49.8668C100.247 49.9429 101.688 50 102.13 50Z" fill="#1D3557"/>
</svg>
