<svg width="40" height="41" viewBox="0 0 40 41" fill="none" xmlns="http://www.w3.org/2000/svg">
<path d="M38.5469 2.41902L30.4221 0.544057C29.5393 0.340936 28.633 0.801864 28.2737 1.62997L24.5238 10.3798C24.1956 11.1454 24.4144 12.0438 25.0628 12.5672L29.7971 16.4422C26.9846 22.4342 22.0707 27.4185 15.9536 30.2856L12.0787 25.5513C11.5475 24.9029 10.6568 24.6842 9.89124 25.0123L1.14142 28.7622C0.305495 29.1294 -0.155433 30.0356 0.0476878 30.9184L1.92265 39.0432C2.11796 39.887 2.86794 40.4963 3.75074 40.4963C23.7581 40.4963 40 24.2857 40 4.2471C40 3.37212 39.3984 2.61433 38.5469 2.41902Z" fill="#1D3557"/>
</svg>
